<svg xmlns="http://www.w3.org/2000/svg" viewBox="0 0 32 32" fill="none">
  <rect width="32" height="32" rx="8" fill="#FFFFFF"/>
  <!-- Torch handle -->
  <rect x="14" y="16" width="4" height="12" rx="1.5" fill="#2E8BE8"/>
  <rect x="13" y="26" width="6" height="3" rx="1.5" fill="#1E5A9E"/>
  <!-- Flame -->
  <path d="M16 16C16 16 21 10 21 6C21 2 18 0 16 0C14 0 11 2 11 6C11 10 16 16 16 16Z" fill="url(#fav-flame)"/>
  <path d="M16 13C16 13 18.5 9 18.5 6.5C18.5 4 17.5 2 16 2C14.5 2 13.5 4 13.5 6.5C13.5 9 16 13 16 13Z" fill="url(#fav-inner)"/>
  <defs>
    <linearGradient id="fav-flame" x1="16" y1="0" x2="16" y2="16" gradientUnits="userSpaceOnUse">
      <stop stop-color="#FFC93C"/>
      <stop offset="0.5" stop-color="#FF6B35"/>
      <stop offset="1" stop-color="#E04E1A"/>
    </linearGradient>
    <linearGradient id="fav-inner" x1="16" y1="2" x2="16" y2="13" gradientUnits="userSpaceOnUse">
      <stop stop-color="#FFC93C"/>
      <stop offset="1" stop-color="#FF6B35"/>
    </linearGradient>
  </defs>
</svg>
